<?xml version="1.0" encoding="UTF-8" standalone="no"?>
<!-- Created with Inkscape (http://www.inkscape.org/) -->

<svg
   xmlns:dc="http://purl.org/dc/elements/1.1/"
   xmlns:cc="http://creativecommons.org/ns#"
   xmlns:rdf="http://www.w3.org/1999/02/22-rdf-syntax-ns#"
   xmlns:svg="http://www.w3.org/2000/svg"
   xmlns="http://www.w3.org/2000/svg"
   xmlns:sodipodi="http://sodipodi.sourceforge.net/DTD/sodipodi-0.dtd"
   xmlns:inkscape="http://www.inkscape.org/namespaces/inkscape"
   id="svg3229"
   height="22"
   width="22"
   version="1.0"
   inkscape:version="0.48.3.1 r9886"
   sodipodi:docname="test_progress_1.svg">
  <defs
     id="defs8" />
  <sodipodi:namedview
     pagecolor="#ffffff"
     bordercolor="#666666"
     borderopacity="1"
     objecttolerance="10"
     gridtolerance="10"
     guidetolerance="10"
     inkscape:pageopacity="0"
     inkscape:pageshadow="2"
     inkscape:window-width="1680"
     inkscape:window-height="998"
     id="namedview6"
     showgrid="true"
     inkscape:zoom="60.68262"
     inkscape:cx="12.039784"
     inkscape:cy="13.191562"
     inkscape:window-x="-8"
     inkscape:window-y="-8"
     inkscape:window-maximized="1"
     inkscape:current-layer="svg3229"
     inkscape:snap-global="true"
     showguides="false"
     inkscape:guide-bbox="true">
    <inkscape:grid
       type="xygrid"
       id="grid5430"
       empspacing="4"
       visible="true"
       enabled="true"
       snapvisiblegridlinesonly="true"
       dotted="false"
       spacingy="0.25px"
       spacingx="0.25px" />
    <sodipodi:guide
       orientation="0,1"
       position="9,19.478394"
       id="guide3076" />
    <sodipodi:guide
       orientation="0,1"
       position="10,18.621477"
       id="guide3078" />
    <sodipodi:guide
       orientation="0,1"
       position="13,15"
       id="guide3080" />
  </sodipodi:namedview>
  <metadata
     id="metadata9">
    <rdf:RDF>
      <cc:Work
         rdf:about="">
        <dc:format>image/svg+xml</dc:format>
        <dc:type
           rdf:resource="http://purl.org/dc/dcmitype/StillImage" />
        <dc:title></dc:title>
      </cc:Work>
    </rdf:RDF>
  </metadata>
  <path
     inkscape:connector-curvature="0"
     style="opacity:0.3;fill:#000000;fill-opacity:1"
     d="m 11.381263,9.589721 -1.272986,0.0037 C 10.057547,9.593421 10,9.683291 10,9.75 l 0,1.122148 c 0,0.08802 0.06466,0.164035 0.119982,0.164035 l 1.252502,0 c 0.06643,0 0.125836,-0.08372 0.125836,-0.167763 l 0,-1.099779 c 0,-0.09339 -0.05713,-0.178948 -0.117057,-0.178948 z"
     id="rect3170-0-8-45-09"
     sodipodi:nodetypes="ccssssssc" />
  <path
     inkscape:connector-curvature="0"
     style="opacity:0.3;fill:#000000;fill-opacity:1"
     d="m 13.381263,9.589721 -1.272985,0.0037 c -0.05073,0 -0.108277,0.08987 -0.108277,0.156579 l 0,1.122148 c 0,0.08802 0.06466,0.164035 0.119982,0.164035 l 1.252501,0 c 0.06643,0 0.125836,-0.08372 0.125836,-0.167763 l 0,-1.099779 c 0,-0.09339 -0.05713,-0.178948 -0.117057,-0.178948 z"
     id="rect3170-0-8-45-1-4"
     sodipodi:nodetypes="ccssssssc" />
  <path
     inkscape:connector-curvature="0"
     style="opacity:0.3;fill:#000000;fill-opacity:1"
     d="m 15.381263,9.589721 -1.272986,0.0037 C 14.057547,9.593421 14,9.683291 14,9.75 l 0,1.122147 c 0,0.08802 0.06466,0.164035 0.119982,0.164035 l 1.252502,0 c 0.06643,0 0.125836,-0.08372 0.125836,-0.167763 l 0,-1.099778 c 0,-0.09339 -0.05713,-0.178948 -0.117057,-0.178948 z"
     id="rect3170-0-8-45-7-8"
     sodipodi:nodetypes="ccssssssc" />
  <path
     style="opacity:0.3;fill:#000000;fill-opacity:1"
     d="M 16.40625,8.4743738 2.8125,8.5056238 c -0.541704,0 -1.15625,0.7533483 -1.15625,1.3125002 l 0,9.40625 c 0,0.737794 0.690478,1.375 1.28125,1.375 l 13.375,0 c 0.709353,0 1.34375,-0.701762 1.34375,-1.40625 l 0,-9.21875 c 0,-0.7828104 -0.609983,-1.5000002 -1.25,-1.5000002 z m -12.75,0.7846667 11.90625,0 c 0.560016,0 1.09375,0.2163808 1.09375,0.4587965 l 0,2.858658 C 16.65625,12.794655 16.120684,13 15.5,13 L 3.78125,13 c -0.516932,0 -1.125,-0.195028 -1.125,-0.423505 l 0,-2.89395 c 0,-0.1731548 0.526012,-0.4235045 1,-0.4235045 z"
     id="rect3170-0-8-0"
     inkscape:connector-curvature="0"
     sodipodi:nodetypes="ccsssssscsssssssss" />
  <path
     style="opacity:0.3;fill:#000000;fill-opacity:1"
     d="M 20.28125,2.875 6.6875,2.90625 C 6.144381,2.90625 5.5,3.6595983 5.5,4.21875 l 0,3.1875 L 17.09375,7.375 C 17.817772,7.375 18.5,8.1277212 18.5,9 l 0,6 1.71875,0 c 0.711207,0 1.3125,-0.701762 1.3125,-1.40625 l 0,-9.25 c 0,-0.7828102 -0.60831,-1.46875 -1.25,-1.46875 z M 7.4375,3.65625 l 12,0 c 0.565237,0 1.09375,0.230853 1.09375,0.46875 l 0,2.78125 c 0,0.2140933 -0.561029,0.4375 -1.1875,0.4375 l -11.8125,0 c -0.521745,0 -1.125,-0.1820324 -1.125,-0.40625 l 0,-2.875 c 0,-0.1699271 0.552839,-0.40625 1.03125,-0.40625 z"
     id="path5218-74"
     inkscape:connector-curvature="0" />
  <path
     style="fill:#dfdbd2"
     d="M 15.90625,7.9743743 2.3125,8.0056243 c -0.541704,0 -1.15625,0.7533483 -1.15625,1.3125 l 0,9.4062497 c 0,0.737794 0.690478,1.375 1.28125,1.375 l 13.375,0 c 0.709353,0 1.34375,-0.701762 1.34375,-1.40625 l 0,-9.2187497 c 0,-0.7828102 -0.609983,-1.5 -1.25,-1.5 z m -12.75,0.7846667 11.90625,0 c 0.560016,0 1.09375,0.2163808 1.09375,0.4587969 l 0,2.8586571 C 16.15625,12.294655 15.620684,12.5 15,12.5 l -11.71875,0 c -0.516932,0 -1.125,-0.195028 -1.125,-0.423505 l 0,-2.8939492 c 0,-0.1731551 0.526012,-0.4235048 1,-0.4235048 z"
     id="rect3170-0-8"
     inkscape:connector-curvature="0"
     sodipodi:nodetypes="ccsssssscsssssssss" />
  <path
     style="fill:#dfdbd2"
     d="M 19.9375,2.53125 6.34375,2.5625 c -0.5431188,0 -1.1875,0.7533483 -1.1875,1.3125 l 0,3.1875 L 16.75,7.03125 c 0.724022,0 1.40625,0.7527212 1.40625,1.625 l 0,6 1.71875,0 c 0.711207,0 1.3125,-0.701762 1.3125,-1.40625 l 0,-9.25 c 0,-0.7828102 -0.60831,-1.46875 -1.25,-1.46875 z M 7.09375,3.3125 l 12,0 c 0.565237,0 1.09375,0.230853 1.09375,0.46875 l 0,2.78125 C 20.1875,6.7765933 19.626471,7 19,7 L 7.1875,7 C 6.6657545,7 6.0625,6.8179676 6.0625,6.59375 l 0,-2.875 c 0,-0.1699271 0.5528391,-0.40625 1.03125,-0.40625 z"
     id="path5218"
     inkscape:connector-curvature="0" />
  <g
     inkscape:groupmode="layer"
     id="layer1"
     inkscape:label="normal"
     sodipodi:insensitive="true" />
  <path
     inkscape:connector-curvature="0"
     style="fill:#dfdbd2"
     d="m 11.131263,9.217574 -1.2729857,0.0037 c -0.05073,0 -0.108277,0.08987 -0.108277,0.156579 l 0,1.122148 c 0,0.08802 0.06466,0.164035 0.119982,0.164035 l 1.2525017,0 c 0.06643,0 0.125836,-0.08372 0.125836,-0.167763 l 0,-1.099779 c 0,-0.09339 -0.05713,-0.178948 -0.117057,-0.178948 z"
     id="rect3170-0-8-45"
     sodipodi:nodetypes="ccssssssc" />
  <path
     inkscape:connector-curvature="0"
     style="fill:#dfdbd2"
     d="m 13.131263,9.217574 -1.272985,0.0037 c -0.05073,0 -0.108277,0.08987 -0.108277,0.156579 l 0,1.122148 c 0,0.08802 0.06466,0.164035 0.119982,0.164035 l 1.252501,0 c 0.06643,0 0.125836,-0.08372 0.125836,-0.167763 l 0,-1.099779 c 0,-0.09339 -0.05713,-0.178948 -0.117057,-0.178948 z"
     id="rect3170-0-8-45-1"
     sodipodi:nodetypes="ccssssssc" />
  <path
     inkscape:connector-curvature="0"
     style="fill:#dfdbd2"
     d="m 15.131263,9.217574 -1.272986,0.0037 c -0.05073,0 -0.108277,0.08987 -0.108277,0.156579 l 0,1.122147 c 0,0.08802 0.06466,0.164035 0.119982,0.164035 l 1.252502,0 c 0.06643,0 0.125836,-0.08372 0.125836,-0.167763 l 0,-1.099778 c 0,-0.09339 -0.05713,-0.178948 -0.117057,-0.178948 z"
     id="rect3170-0-8-45-7"
     sodipodi:nodetypes="ccssssssc" />
  <path
     id="rect3170-0-8-4-2"
     d="m -21.821516,8.6101125 c -0.541705,0 -1.160033,0.767266 -1.160033,1.326417 l 0,9.3851415 c 0,0.737794 0.701264,1.377688 1.292037,1.377688 l 13.376371,0 c 0.709353,0 1.331592,-0.684305 1.331592,-1.388793 l 0,-9.244544 c 0,-0.7828105 -0.612461,-1.4782155 -1.252478,-1.4782155 l -13.587934,0.0223 z"
     style="opacity:0.3;fill:#000000;fill-opacity:1"
     inkscape:connector-curvature="0"
     sodipodi:nodetypes="cssssssccc" />
  <path
     style="opacity:0.3;fill:#000000;fill-opacity:1"
     d="M -4.401937,2.96875 -18,3 c -0.543119,0 -1.164649,0.7533483 -1.164649,1.3125 l 0,3.1875004 11.583536,-0.03125 c 0.724022,0 1.416464,0.752721 1.416464,1.625 l 0,5.9999996 1.699758,0 c 0.711207,0 1.322034,-0.701762 1.322034,-1.40625 l 0,-9.25 c 0,-0.7828102 -0.61739,-1.46875 -1.25908,-1.46875 z"
     id="path5218-8-8"
     inkscape:connector-curvature="0" />
  <path
     inkscape:connector-curvature="0"
     style="fill:#dfdbd2"
     d="m -8.766977,7.9084539 -13.59375,0.03125 c -0.541705,0 -1.15625,0.7533483 -1.15625,1.3125 l 0,9.4062501 c 0,0.737794 0.690478,1.375 1.28125,1.375 l 13.375,0 c 0.709353,0 1.34375,-0.701762 1.34375,-1.40625 l 0,-9.2187501 c 0,-0.7828102 -0.609983,-1.5 -1.25,-1.5 z m -12.75,0.71875 11.90625,0 c 0.560016,0 1.09375,0.1915983 1.09375,0.40625 l 0,2.5312501 c 0,0.193174 -0.535566,0.375 -1.15625,0.375 l -11.71875,0 c -0.516926,0 -1.125,-0.172691 -1.125,-0.375 l 0,-2.5625001 c 0,-0.1533233 0.526008,-0.375 1,-0.375 z"
     id="rect3170-0-8-6" />
  <path
     inkscape:connector-curvature="0"
     style="fill:#dfdbd2"
     d="m -4.766977,2.4709539 -13.59375,0.03125 c -0.543119,0 -1.1875,0.7533483 -1.1875,1.3125 l 0,3.1875 11.59375,-0.03125 c 0.724022,0 1.40625,0.7527212 1.40625,1.625 l 0,6.0000001 1.71875,0 c 0.711207,0 1.3125,-0.701762 1.3125,-1.40625 l 0,-9.2500001 c 0,-0.7828102 -0.60831,-1.46875 -1.25,-1.46875 z m -12.84375,0.78125 12,0 c 0.565237,0 1.09375,0.230853 1.09375,0.46875 l 0,2.78125 c 0,0.2140933 -0.561029,0.4375 -1.1875,0.4375 l -11.8125,0 c -0.521746,0 -1.125,-0.1820324 -1.125,-0.40625 l 0,-2.875 c 0,-0.1699271 0.552839,-0.40625 1.03125,-0.40625 z"
     id="path5218-7" />
  <path
     inkscape:connector-curvature="0"
     style="fill:#dfdbd2"
     d="m -13.516977,8.9397039 -1.272986,0.0037 c -0.05073,0 -0.108277,0.08987 -0.108277,0.156579 l 0,1.1221481 c 0,0.08802 0.06466,0.164035 0.119982,0.164035 l 1.252502,0 c 0.06643,0 0.125836,-0.08372 0.125836,-0.167763 l 0,-1.0997791 c 0,-0.09339 -0.05713,-0.178948 -0.117057,-0.178948 z"
     id="rect3170-0-8-45-0"
     sodipodi:nodetypes="ccssssssc" />
  <path
     inkscape:connector-curvature="0"
     style="fill:#dfdbd2"
     d="m -11.516977,8.9397039 -1.272985,0.0037 c -0.05073,0 -0.108277,0.08987 -0.108277,0.156579 l 0,1.1221481 c 0,0.08802 0.06466,0.164035 0.119982,0.164035 l 1.252501,0 c 0.06643,0 0.125836,-0.08372 0.125836,-0.167763 l 0,-1.0997791 c 0,-0.09339 -0.05713,-0.178948 -0.117057,-0.178948 z"
     id="rect3170-0-8-45-1-3"
     sodipodi:nodetypes="ccssssssc" />
  <path
     inkscape:connector-curvature="0"
     style="fill:#dfdbd2"
     d="m -9.516977,8.9397039 -1.272986,0.0037 c -0.05073,0 -0.108277,0.08987 -0.108277,0.156579 l 0,1.1221471 c 0,0.08802 0.06466,0.164035 0.119982,0.164035 l 1.252502,0 c 0.06643,0 0.125836,-0.08372 0.125836,-0.167763 l 0,-1.0997781 c 0,-0.09339 -0.05713,-0.178948 -0.117057,-0.178948 z"
     id="rect3170-0-8-45-7-7"
     sodipodi:nodetypes="ccssssssc" />
  <path
     inkscape:connector-curvature="0"
     style="fill:#dfdbd2"
     d="m -9.564119,3.5743432 -1.272986,0.0037 c -0.05073,0 -0.108277,0.08987 -0.108277,0.156579 l 0,1.122148 c 0,0.08802 0.06466,0.164035 0.119982,0.164035 l 1.252502,0 c 0.06643,0 0.125836,-0.08372 0.125836,-0.167763 l 0,-1.099779 c 0,-0.09339 -0.05713,-0.178948 -0.117057,-0.178948 z"
     id="rect3170-0-8-45-11-8"
     sodipodi:nodetypes="ccssssssc" />
  <path
     inkscape:connector-curvature="0"
     style="fill:#dfdbd2"
     d="m -7.564119,3.5743432 -1.272985,0.0037 c -0.05073,0 -0.108277,0.08987 -0.108277,0.156579 l 0,1.122148 c 0,0.08802 0.06466,0.164035 0.119982,0.164035 l 1.252501,0 c 0.06643,0 0.125836,-0.08372 0.125836,-0.167763 l 0,-1.099779 c 0,-0.09339 -0.05713,-0.178948 -0.117057,-0.178948 z"
     id="rect3170-0-8-45-1-5-6"
     sodipodi:nodetypes="ccssssssc" />
  <path
     inkscape:connector-curvature="0"
     style="fill:#dfdbd2"
     d="m -5.564119,3.5743432 -1.272986,0.0037 c -0.05073,0 -0.108277,0.08987 -0.108277,0.156579 l 0,1.122147 c 0,0.08802 0.06466,0.164035 0.119982,0.164035 l 1.252502,0 c 0.06643,0 0.125836,-0.08372 0.125836,-0.167763 l 0,-1.099778 c 0,-0.09339 -0.05713,-0.178948 -0.117057,-0.178948 z"
     id="rect3170-0-8-45-7-2-6"
     sodipodi:nodetypes="ccssssssc" />
  <path
     inkscape:connector-curvature="0"
     style="opacity:0.3;fill:#000000;fill-opacity:1"
     d="m 15.381263,4.089721 -1.272986,0.0037 C 14.057547,4.093421 14,4.183291 14,4.25 l 0,1.122148 c 0,0.08802 0.06466,0.164035 0.119982,0.164035 l 1.252502,0 c 0.06643,0 0.125836,-0.08372 0.125836,-0.167763 l 0,-1.099779 c 0,-0.09339 -0.05713,-0.178948 -0.117057,-0.178948 z"
     id="rect3170-0-8-45-09-8"
     sodipodi:nodetypes="ccssssssc" />
  <path
     inkscape:connector-curvature="0"
     style="opacity:0.3;fill:#000000;fill-opacity:1"
     d="m 17.381263,4.089721 -1.272985,0.0037 c -0.05073,0 -0.108277,0.08987 -0.108277,0.156579 l 0,1.122148 c 0,0.08802 0.06466,0.164035 0.119982,0.164035 l 1.252501,0 c 0.06643,0 0.125836,-0.08372 0.125836,-0.167763 l 0,-1.099779 c 0,-0.09339 -0.05713,-0.178948 -0.117057,-0.178948 z"
     id="rect3170-0-8-45-1-4-2"
     sodipodi:nodetypes="ccssssssc" />
  <path
     inkscape:connector-curvature="0"
     style="opacity:0.3;fill:#000000;fill-opacity:1"
     d="m 19.381263,4.089721 -1.272986,0.0037 C 18.057547,4.093421 18,4.183291 18,4.25 l 0,1.122147 c 0,0.08802 0.06466,0.164035 0.119982,0.164035 l 1.252502,0 c 0.06643,0 0.125836,-0.08372 0.125836,-0.167763 l 0,-1.099778 c 0,-0.09339 -0.05713,-0.178948 -0.117057,-0.178948 z"
     id="rect3170-0-8-45-7-8-4"
     sodipodi:nodetypes="ccssssssc" />
  <path
     inkscape:connector-curvature="0"
     style="fill:#dfdbd2"
     d="m 15.131263,3.717574 -1.272986,0.0037 c -0.05073,0 -0.108277,0.08987 -0.108277,0.156579 l 0,1.122148 c 0,0.08802 0.06466,0.164035 0.119982,0.164035 l 1.252502,0 c 0.06643,0 0.125836,-0.08372 0.125836,-0.167763 l 0,-1.099779 c 0,-0.09339 -0.05713,-0.178948 -0.117057,-0.178948 z"
     id="rect3170-0-8-45-5"
     sodipodi:nodetypes="ccssssssc" />
  <path
     inkscape:connector-curvature="0"
     style="fill:#dfdbd2"
     d="m 17.131263,3.717574 -1.272985,0.0037 c -0.05073,0 -0.108277,0.08987 -0.108277,0.156579 l 0,1.122148 c 0,0.08802 0.06466,0.164035 0.119982,0.164035 l 1.252501,0 c 0.06643,0 0.125836,-0.08372 0.125836,-0.167763 l 0,-1.099779 c 0,-0.09339 -0.05713,-0.178948 -0.117057,-0.178948 z"
     id="rect3170-0-8-45-1-5"
     sodipodi:nodetypes="ccssssssc" />
  <path
     inkscape:connector-curvature="0"
     style="fill:#dfdbd2"
     d="m 19.131263,3.717574 -1.272986,0.0037 c -0.05073,0 -0.108277,0.08987 -0.108277,0.156579 L 17.75,5 c 0,0.08802 0.06466,0.164035 0.119982,0.164035 l 1.252502,0 c 0.06643,0 0.125836,-0.08372 0.125836,-0.167763 l 0,-1.099778 c 0,-0.09339 -0.05713,-0.178948 -0.117057,-0.178948 z"
     id="rect3170-0-8-45-7-1"
     sodipodi:nodetypes="ccssssssc" />
</svg>
